<svg width="1024" height="1024" viewBox="0 0 1024 1024" fill="none" xmlns="http://www.w3.org/2000/svg">
<g clip-path="url(#clip0_10_10308)">
<rect width="1024" height="1024" fill="white"/>
<rect width="1024" height="1024" fill="#2C6A46"/>
<path d="M397.835 328.565L405.437 240.894C407.424 217.98 375.716 208.606 353.113 242.38C330.511 276.154 304.025 281.786 293.654 291.426C283.282 301.066 261.906 298.71 315.349 359.555C358.104 408.231 388.154 359.177 397.835 328.565Z" fill="#F9FEF3"/>
<path d="M660.752 215.882C668.863 261.253 581.758 237.639 556.173 235.421C530.588 233.202 489.223 278.246 490.774 260.364C492.324 242.482 521.389 165.655 546.974 167.874C568.282 153.661 619.799 219.357 660.752 215.882Z" fill="#F9FEF3"/>
<path d="M762.595 528.851C767.739 573.845 632.852 638.05 578.38 633.327C523.909 628.603 481.779 607.171 485.691 562.053C489.604 516.935 503.648 491.842 558.12 496.565C625.035 627.768 750.832 425.95 762.595 528.851Z" fill="#F9FEF3"/>
<path d="M702.574 517.351C707.09 534.152 637.523 570.866 621.255 575.239C604.988 579.611 561.976 587.767 557.46 570.967C552.945 554.166 543.199 550.222 561.385 525.701C569.749 527.922 633.569 547.017 702.574 517.351Z" fill="#F9FEF3"/>
<path d="M508.42 693.507C195.67 532.386 326.27 803.164 233.635 713.845C141 624.526 324.367 596.54 416.178 501.32C515.675 239.437 550.571 380.998 643.206 470.317C542.34 533.841 600.231 598.288 508.42 693.507Z" fill="#F9FEF3"/>
<path d="M192.968 644.572C267.96 705.78 326.427 730.228 284.097 758.828C241.766 787.427 176.727 760.197 130.194 691.324C81.2891 589.719 142.199 527.749 214.983 506.457C159.571 549.331 175.246 617.44 192.968 644.572Z" fill="#F9FEF3"/>
<path d="M383.748 736.398C363.946 796.913 280.662 836.366 241.872 833.002C203.081 829.638 174.054 793.23 177.919 748.662C181.784 704.094 221.301 665.097 261.56 658.049C309.942 655.72 374.607 639.245 383.748 736.398Z" fill="#F9FEF3"/>
<path d="M256.812 825.208C256.104 820.763 275.326 788.677 376.28 778.36C420.34 771.642 433.707 798.028 434.414 802.473C437.006 818.758 446.059 813.515 398.534 821.079C196.87 842.65 257.519 829.653 256.812 825.208Z" fill="#F9FEF3"/>
<path d="M599.187 805.769C608.222 823.114 576.15 815.314 531.467 816.96C513.585 815.409 514.405 815.481 505.704 801.527C499.568 791.686 515.181 766.012 550.846 783.008C579.051 776.068 600.189 794.214 599.187 805.769Z" fill="#F9FEF3"/>
<path d="M554.426 718.576C546.262 812.723 666.962 827.204 520.857 810.52C505.726 809.208 468.583 747.769 474.976 674.046C499.342 589.836 510.134 591.092 523.146 598.926C663.376 683.357 568.566 555.509 554.426 718.576Z" fill="#F9FEF3"/>
<path d="M471.886 703.89C466.329 739.965 434.072 771.852 388.679 767.916C387.34 783.358 462.662 654.408 306.91 655.959C309.51 625.972 370.891 577.191 416.284 581.128C461.677 585.064 493.705 562.246 471.886 703.89Z" fill="#F9FEF3"/>
<path d="M645.242 296.343C738.858 437.96 733.364 442.769 649.833 474.907C508.612 529.241 404.712 449.011 384.187 395.661C475.38 281.613 374.26 272.844 465.668 243.13C526.608 223.321 594.938 228.242 645.242 296.343Z" fill="#F9FEF3"/>
<path d="M742.755 340.935C756.046 401.81 710.059 457.044 684.199 454.801C658.339 452.559 628.112 418.658 630.473 391.423C632.835 364.187 645.922 329.025 669.596 339.609C712.199 351.835 728.934 326.687 742.755 340.935Z" fill="#F9FEF3"/>
<path d="M874.564 464.785C873.324 479.09 855.045 483.167 833.605 487.331C816.824 485.876 810.214 477.633 811.454 463.327C812.695 449.022 822.587 444.72 843.011 446.491C862.651 434.141 876.465 442.867 874.564 464.785Z" fill="#F9FEF3"/>
<path d="M874.564 464.785C873.324 479.09 855.045 483.167 833.605 487.331C816.824 485.876 810.214 477.633 811.454 463.327C812.695 449.022 822.587 444.72 843.011 446.491C862.651 434.141 876.465 442.867 874.564 464.785Z" fill="#F9FEF3"/>
<path d="M835.622 520.127C847.453 545.745 835.499 552.739 824.494 551.784C813.49 550.83 810.98 538.065 805.282 528.538C803.22 511.797 807.09 503.099 818.094 504.053C829.098 505.007 828.565 504.847 835.622 520.127Z" fill="#F9FEF3"/>
<path d="M913.825 515.365C908.56 522.115 901.916 525.374 882.42 507.122C875.017 501.347 875.937 493.19 881.202 486.44C886.467 479.69 893.727 480.909 906.889 491.176C920.051 501.443 919.09 508.615 913.825 515.365Z" fill="#F9FEF3"/>
<path d="M890.772 567.067C881.915 574.12 865.152 567.355 858.76 554.254C852.826 542.093 846.531 522.077 857.015 518.863C875.881 513.079 877.159 515.699 886.58 530.962C902.572 552.532 899.629 560.014 890.772 567.067Z" fill="#F9FEF3"/>
<path d="M728.259 811.258C727.768 816.919 712.391 818.414 694.648 816.875C651.121 813.101 646.061 819.37 634.339 798.278C680.947 804.829 690.664 816.524 687.229 763.535C700.709 764.704 729.237 799.978 728.259 811.258Z" fill="#F9FEF3"/>
<path d="M777 634.137L955 634L926.904 823.022L806.645 823.114L777 634.137Z" fill="#F9FEF3"/>
<rect x="828.392" y="680.547" width="23" height="108" transform="rotate(-2.04394 828.392 680.547)" fill="#2C6A46"/>
<ellipse cx="839.867" cy="679.638" rx="11.5" ry="10.5" transform="rotate(-2.04394 839.867 679.638)" fill="#2C6A46"/>
<ellipse cx="843.755" cy="788.568" rx="11.5" ry="10.5" transform="rotate(-2.04394 843.755 788.568)" fill="#2C6A46"/>
<rect x="881.41" y="678.994" width="23" height="108" transform="rotate(1.95606 881.41 678.994)" fill="#2C6A46"/>
<ellipse cx="892.92" cy="678.886" rx="11.5" ry="10.5" transform="rotate(1.95606 892.92 678.886)" fill="#2C6A46"/>
<ellipse cx="889.199" cy="787.823" rx="11.5" ry="10.5" transform="rotate(1.95606 889.199 787.823)" fill="#2C6A46"/>
</g>
<defs>
<clipPath id="clip0_10_10308">
<rect width="1024" height="1024" fill="white"/>
</clipPath>
</defs>
</svg>
